# xmcd
#
# Track frame offsets:
#       150
#       17245
#       31285
#       51045
#       73888
#       86790
#       101373
#       118375
#       128625
#       146913
#       179375
#       192840
#
# Disc length: 2689 seconds
#
# Revision: 1
# Processed by: cddbd v1.4PL0 Copyright (c) Steve Scherf et al.
# Submitted via: MusiCat 1.1
#
DISCID=af0a7f0c
DTITLE=Redlabel Blues Band - Fancy ladies and bootleg liquor
DYEAR=1993
DGENRE=
TTITLE0=Soul Blues
TTITLE1=Further on up the road
TTITLE2=Hot News
TTITLE3=Brother Booze
TTITLE4=Caldonia
TTITLE5=Night Train
TTITLE6=Blues Magic
TTITLE7=Sleepin' in the ground
TTITLE8=Goin' Home
TTITLE9=Double Trouble
TTITLE10=Selfdestruction Blues
TTITLE11=Why did you trade heaven
EXTD=1993\n\n\nsubmitted by Stamppot
EXTT0=
EXTT1=
EXTT2=
EXTT3=
EXTT4=
EXTT5=
EXTT6=
EXTT7=
EXTT8=
EXTT9=
EXTT10=
EXTT11=
PLAYORDER=
